<mxfile host="app.diagrams.net" modified="2020-09-04T05:59:46.680Z" agent="5.0 (Windows NT 10.0; Win64; x64) AppleWebKit/537.36 (KHTML, like Gecko) Chrome/84.0.4147.135 Safari/537.36" etag="tzGeM5ZdeCJdgwpiW00-" version="13.6.6" type="github">
  <diagram name="Page-1" id="2c0d36ab-eaac-3732-788b-9136903baeff">
    <mxGraphModel dx="1673" dy="934" grid="1" gridSize="10" guides="1" tooltips="1" connect="1" arrows="1" fold="1" page="1" pageScale="1.5" pageWidth="1654" pageHeight="1169" background="#ffffff" math="0" shadow="0">
      <root>
        <mxCell id="0" />
        <mxCell id="1" parent="0" />
        <mxCell id="123" value="" style="fillColor=#AE4132;strokeColor=none;opacity=30;" parent="1" vertex="1">
          <mxGeometry x="747" y="175.50000000000003" width="210" height="99.99999999999994" as="geometry" />
        </mxCell>
        <mxCell id="122" value="" style="fillColor=#10739E;strokeColor=none;opacity=30;" parent="1" vertex="1">
          <mxGeometry x="70" y="325.5" width="2350" height="100" as="geometry" />
        </mxCell>
        <mxCell id="121" value="" style="fillColor=#F2931E;strokeColor=none;opacity=30;" parent="1" vertex="1">
          <mxGeometry x="1990" y="705.5" width="150" height="270" as="geometry" />
        </mxCell>
        <mxCell id="119" value="" style="fillColor=#F2931E;strokeColor=none;opacity=30;" parent="1" vertex="1">
          <mxGeometry x="1200" y="615.5" width="150" height="270" as="geometry" />
        </mxCell>
        <mxCell id="117" value="" style="fillColor=#F2931E;strokeColor=none;opacity=30;" parent="1" vertex="1">
          <mxGeometry x="70" y="431" width="2350" height="104.5" as="geometry" />
        </mxCell>
        <mxCell id="116" value="" style="fillColor=#10739E;strokeColor=none;opacity=30;" parent="1" vertex="1">
          <mxGeometry x="1990" y="985.5000000000002" width="150" height="80" as="geometry" />
        </mxCell>
        <mxCell id="115" value="" style="fillColor=#10739E;strokeColor=none;opacity=30;" parent="1" vertex="1">
          <mxGeometry x="1640" y="715.5" width="330" height="80" as="geometry" />
        </mxCell>
        <mxCell id="114" value="" style="fillColor=#10739E;strokeColor=none;opacity=30;" parent="1" vertex="1">
          <mxGeometry x="1200" y="895.5000000000001" width="150" height="80" as="geometry" />
        </mxCell>
        <mxCell id="113" value="" style="fillColor=#10739E;strokeColor=none;opacity=30;" parent="1" vertex="1">
          <mxGeometry x="640" y="715.5000000000001" width="329.99999999999994" height="80" as="geometry" />
        </mxCell>
        <mxCell id="110" value="" style="fillColor=#12AAB5;strokeColor=none;opacity=30;" parent="1" vertex="1">
          <mxGeometry x="1640" y="445.5000000000001" width="500" height="80" as="geometry" />
        </mxCell>
        <mxCell id="109" value="" style="fillColor=#12AAB5;strokeColor=none;opacity=30;" parent="1" vertex="1">
          <mxGeometry x="640" y="445.5" width="500" height="80" as="geometry" />
        </mxCell>
        <mxCell id="2" value="National&#xa;Project" style="rounded=1;fillColor=#23445D;gradientColor=none;strokeColor=none;fontColor=#FFFFFF;fontStyle=1;fontFamily=Tahoma;fontSize=14" parent="1" vertex="1">
          <mxGeometry x="757" y="185.5" width="190" height="80" as="geometry" />
        </mxCell>
        <mxCell id="4" value="Training Department" style="rounded=1;fillColor=#23445D;gradientColor=none;strokeColor=none;fontColor=#FFFFFF;fontStyle=1;fontFamily=Tahoma;fontSize=14" parent="1" vertex="1">
          <mxGeometry x="1794.9999999999998" y="335.5" width="190" height="80" as="geometry" />
        </mxCell>
        <mxCell id="9" value="" style="edgeStyle=elbowEdgeStyle;elbow=vertical;strokeWidth=2;rounded=0" parent="1" source="2" target="4" edge="1">
          <mxGeometry x="337" y="215.5" width="100" height="100" as="geometry">
            <mxPoint x="337" y="315.5" as="sourcePoint" />
            <mxPoint x="437" y="215.5" as="targetPoint" />
          </mxGeometry>
        </mxCell>
        <mxCell id="12" value="App" style="rounded=1;fillColor=#23445D;gradientColor=none;strokeColor=none;fontColor=#FFFFFF;fontStyle=1;fontFamily=Tahoma;fontSize=14" parent="1" vertex="1">
          <mxGeometry x="794.9999999999999" y="335.5" width="190" height="80" as="geometry" />
        </mxCell>
        <mxCell id="25" value="component" style="rounded=1;fillColor=#23445D;gradientColor=none;strokeColor=none;fontColor=#FFFFFF;fontStyle=1;fontFamily=Tahoma;fontSize=14" parent="1" vertex="1">
          <mxGeometry x="650" y="455.5" width="130" height="60" as="geometry" />
        </mxCell>
        <mxCell id="26" value="Table" style="rounded=1;fillColor=#0050ef;strokeColor=#001DBC;fontColor=#ffffff;fontStyle=1;fontFamily=Tahoma;fontSize=14" parent="1" vertex="1">
          <mxGeometry x="650" y="545.5" width="130" height="60" as="geometry" />
        </mxCell>
        <mxCell id="27" value="Chart" style="rounded=1;fillColor=#0050ef;strokeColor=#001DBC;fontColor=#ffffff;fontStyle=1;fontFamily=Tahoma;fontSize=14" parent="1" vertex="1">
          <mxGeometry x="650" y="635.5" width="130" height="60" as="geometry" />
        </mxCell>
        <mxCell id="28" value="Data Collection" style="rounded=1;fillColor=#0050ef;strokeColor=#001DBC;fontColor=#ffffff;fontStyle=1;fontFamily=Tahoma;fontSize=14" parent="1" vertex="1">
          <mxGeometry x="650" y="725.5" width="130" height="60" as="geometry" />
        </mxCell>
        <mxCell id="29" value="View" style="rounded=1;fillColor=#23445D;gradientColor=none;strokeColor=none;fontColor=#FFFFFF;fontStyle=1;fontFamily=Tahoma;fontSize=14" parent="1" vertex="1">
          <mxGeometry x="825" y="455.5" width="130" height="60" as="geometry" />
        </mxCell>
        <mxCell id="30" value="Common" style="rounded=1;fillColor=#0050ef;strokeColor=#001DBC;fontColor=#ffffff;fontStyle=1;fontFamily=Tahoma;fontSize=14" parent="1" vertex="1">
          <mxGeometry x="825" y="545.5" width="130" height="60" as="geometry" />
        </mxCell>
        <mxCell id="31" value="Client / Server" style="rounded=1;fillColor=#0050ef;strokeColor=#001DBC;fontColor=#ffffff;fontStyle=1;fontFamily=Tahoma;fontSize=14" parent="1" vertex="1">
          <mxGeometry x="825" y="635.5" width="130" height="60" as="geometry" />
        </mxCell>
        <mxCell id="32" value="Data Collection" style="rounded=1;fillColor=#0050ef;strokeColor=#001DBC;fontColor=#ffffff;fontStyle=1;fontFamily=Tahoma;fontSize=14" parent="1" vertex="1">
          <mxGeometry x="825" y="725.5" width="130" height="60" as="geometry" />
        </mxCell>
        <mxCell id="33" value="Functions" style="rounded=1;fillColor=#23445D;gradientColor=none;strokeColor=none;fontColor=#FFFFFF;fontStyle=1;fontFamily=Tahoma;fontSize=14" parent="1" vertex="1">
          <mxGeometry x="1000" y="455.5" width="130" height="60" as="geometry" />
        </mxCell>
        <mxCell id="34" value="Components" style="rounded=1;fillColor=#0050ef;strokeColor=#001DBC;fontColor=#ffffff;fontStyle=1;fontFamily=Tahoma;fontSize=14" parent="1" vertex="1">
          <mxGeometry x="1000" y="545.5" width="130" height="60" as="geometry" />
        </mxCell>
        <mxCell id="VNOOyDUHC6UwMGlSPUmM-191" style="edgeStyle=orthogonalEdgeStyle;rounded=0;orthogonalLoop=1;jettySize=auto;html=1;exitX=1;exitY=0.5;exitDx=0;exitDy=0;entryX=0;entryY=0.5;entryDx=0;entryDy=0;fontSize=22;" edge="1" parent="1" source="35" target="VNOOyDUHC6UwMGlSPUmM-186">
          <mxGeometry relative="1" as="geometry" />
        </mxCell>
        <mxCell id="35" value="Modules" style="rounded=1;fillColor=#0050ef;strokeColor=#001DBC;fontColor=#ffffff;fontStyle=1;fontFamily=Tahoma;fontSize=14" parent="1" vertex="1">
          <mxGeometry x="1000" y="635.5" width="130" height="60" as="geometry" />
        </mxCell>
        <mxCell id="44" value="SI" style="rounded=1;fillColor=#23445D;gradientColor=none;strokeColor=none;fontColor=#FFFFFF;fontStyle=1;fontFamily=Tahoma;fontSize=14" parent="1" vertex="1">
          <mxGeometry x="1650" y="455.50000000000006" width="130" height="60" as="geometry" />
        </mxCell>
        <mxCell id="45" value="Programming" style="rounded=1;fillColor=#23445D;gradientColor=none;strokeColor=none;fontColor=#FFFFFF;fontStyle=1;fontFamily=Tahoma;fontSize=14" parent="1" vertex="1">
          <mxGeometry x="1650" y="545.5" width="130" height="60" as="geometry" />
        </mxCell>
        <mxCell id="46" value="Client / Server" style="rounded=1;fillColor=#23445D;gradientColor=none;strokeColor=none;fontColor=#FFFFFF;fontStyle=1;fontFamily=Tahoma;fontSize=14" parent="1" vertex="1">
          <mxGeometry x="1650" y="635.5" width="130" height="60" as="geometry" />
        </mxCell>
        <mxCell id="47" value="Data Collection" style="rounded=1;fillColor=#23445D;gradientColor=none;strokeColor=none;fontColor=#FFFFFF;fontStyle=1;fontFamily=Tahoma;fontSize=14" parent="1" vertex="1">
          <mxGeometry x="1650" y="725.5000000000001" width="130" height="60" as="geometry" />
        </mxCell>
        <mxCell id="48" value="SSI" style="rounded=1;fillColor=#008a00;strokeColor=#005700;fontColor=#ffffff;fontStyle=1;fontFamily=Tahoma;fontSize=14" parent="1" vertex="1">
          <mxGeometry x="1825" y="455.50000000000006" width="130" height="60" as="geometry" />
        </mxCell>
        <mxCell id="49" value="Programming" style="rounded=1;fillColor=#23445D;gradientColor=none;strokeColor=none;fontColor=#FFFFFF;fontStyle=1;fontFamily=Tahoma;fontSize=14" parent="1" vertex="1">
          <mxGeometry x="1825" y="545.5" width="130" height="60" as="geometry" />
        </mxCell>
        <mxCell id="50" value="Client / Server" style="rounded=1;fillColor=#23445D;gradientColor=none;strokeColor=none;fontColor=#FFFFFF;fontStyle=1;fontFamily=Tahoma;fontSize=14" parent="1" vertex="1">
          <mxGeometry x="1825" y="635.5" width="130" height="60" as="geometry" />
        </mxCell>
        <mxCell id="51" value="Data Collection" style="rounded=1;fillColor=#23445D;gradientColor=none;strokeColor=none;fontColor=#FFFFFF;fontStyle=1;fontFamily=Tahoma;fontSize=14" parent="1" vertex="1">
          <mxGeometry x="1825" y="725.5000000000001" width="130" height="60" as="geometry" />
        </mxCell>
        <mxCell id="52" value="XMI" style="rounded=1;fillColor=#23445D;gradientColor=none;strokeColor=none;fontColor=#FFFFFF;fontStyle=1;fontFamily=Tahoma;fontSize=14" parent="1" vertex="1">
          <mxGeometry x="2000" y="455.50000000000006" width="130" height="60" as="geometry" />
        </mxCell>
        <mxCell id="53" value="Programming" style="rounded=1;fillColor=#23445D;gradientColor=none;strokeColor=none;fontColor=#FFFFFF;fontStyle=1;fontFamily=Tahoma;fontSize=14" parent="1" vertex="1">
          <mxGeometry x="2000" y="545.5" width="130" height="60" as="geometry" />
        </mxCell>
        <mxCell id="54" value="HTTP" style="rounded=1;fillColor=#23445D;gradientColor=none;strokeColor=none;fontColor=#FFFFFF;fontStyle=1;fontFamily=Tahoma;fontSize=14" parent="1" vertex="1">
          <mxGeometry x="2000" y="635.5" width="130" height="60" as="geometry" />
        </mxCell>
        <mxCell id="55" value="HTS" style="rounded=1;fillColor=#23445D;gradientColor=none;strokeColor=none;fontColor=#FFFFFF;fontStyle=1;fontFamily=Tahoma;fontSize=14" parent="1" vertex="1">
          <mxGeometry x="2000" y="725.5000000000001" width="130" height="60" as="geometry" />
        </mxCell>
        <mxCell id="56" value="CVS" style="rounded=1;fillColor=#23445D;gradientColor=none;strokeColor=none;fontColor=#FFFFFF;fontStyle=1;fontFamily=Tahoma;fontSize=14" parent="1" vertex="1">
          <mxGeometry x="2000" y="815.5000000000001" width="130" height="60" as="geometry" />
        </mxCell>
        <mxCell id="57" value="Client / Server" style="rounded=1;fillColor=#23445D;gradientColor=none;strokeColor=none;fontColor=#FFFFFF;fontStyle=1;fontFamily=Tahoma;fontSize=14" parent="1" vertex="1">
          <mxGeometry x="2000" y="905.5000000000001" width="130" height="60" as="geometry" />
        </mxCell>
        <mxCell id="58" value="Data Collection" style="rounded=1;fillColor=#23445D;gradientColor=none;strokeColor=none;fontColor=#FFFFFF;fontStyle=1;fontFamily=Tahoma;fontSize=14" parent="1" vertex="1">
          <mxGeometry x="2000" y="995.5000000000001" width="130" height="60" as="geometry" />
        </mxCell>
        <mxCell id="59" value="" style="edgeStyle=elbowEdgeStyle;elbow=vertical;strokeWidth=2;rounded=0" parent="1" source="2" target="12" edge="1">
          <mxGeometry x="347" y="225.5" width="100" height="100" as="geometry">
            <mxPoint x="861.9999999999999" y="275.5" as="sourcePoint" />
            <mxPoint x="1466.9999999999998" y="345.5" as="targetPoint" />
          </mxGeometry>
        </mxCell>
        <mxCell id="61" value="" style="edgeStyle=elbowEdgeStyle;elbow=vertical;strokeWidth=2;rounded=0;entryX=0.5;entryY=0;entryDx=0;entryDy=0;" parent="1" source="2" target="VNOOyDUHC6UwMGlSPUmM-139" edge="1">
          <mxGeometry x="-23" y="135.5" width="100" height="100" as="geometry">
            <mxPoint x="-23" y="235.5" as="sourcePoint" />
            <mxPoint x="202" y="335.5" as="targetPoint" />
          </mxGeometry>
        </mxCell>
        <mxCell id="70" value="" style="edgeStyle=elbowEdgeStyle;elbow=horizontal;strokeWidth=2;rounded=0" parent="1" source="25" target="26" edge="1">
          <mxGeometry x="210" y="135.5" width="100" height="100" as="geometry">
            <mxPoint x="210" y="235.5" as="sourcePoint" />
            <mxPoint x="310" y="135.5" as="targetPoint" />
            <Array as="points">
              <mxPoint x="630" y="535.5" />
            </Array>
          </mxGeometry>
        </mxCell>
        <mxCell id="71" value="" style="edgeStyle=elbowEdgeStyle;elbow=horizontal;strokeWidth=2;rounded=0" parent="1" source="25" target="27" edge="1">
          <mxGeometry x="210" y="135.5" width="100" height="100" as="geometry">
            <mxPoint x="210" y="235.5" as="sourcePoint" />
            <mxPoint x="310" y="135.5" as="targetPoint" />
            <Array as="points">
              <mxPoint x="630" y="575.5" />
            </Array>
          </mxGeometry>
        </mxCell>
        <mxCell id="72" value="" style="edgeStyle=elbowEdgeStyle;elbow=horizontal;strokeWidth=2;rounded=0" parent="1" source="25" target="28" edge="1">
          <mxGeometry x="210" y="135.5" width="100" height="100" as="geometry">
            <mxPoint x="210" y="235.5" as="sourcePoint" />
            <mxPoint x="310" y="135.5" as="targetPoint" />
            <Array as="points">
              <mxPoint x="630" y="615.5" />
            </Array>
          </mxGeometry>
        </mxCell>
        <mxCell id="73" value="" style="edgeStyle=elbowEdgeStyle;elbow=horizontal;strokeWidth=2;rounded=0" parent="1" source="29" target="30" edge="1">
          <mxGeometry x="210" y="135.5" width="100" height="100" as="geometry">
            <mxPoint x="210" y="235.5" as="sourcePoint" />
            <mxPoint x="310" y="135.5" as="targetPoint" />
            <Array as="points">
              <mxPoint x="800" y="535.5" />
            </Array>
          </mxGeometry>
        </mxCell>
        <mxCell id="74" value="" style="edgeStyle=elbowEdgeStyle;elbow=horizontal;strokeWidth=2;rounded=0" parent="1" source="29" target="31" edge="1">
          <mxGeometry x="210" y="135.5" width="100" height="100" as="geometry">
            <mxPoint x="210" y="235.5" as="sourcePoint" />
            <mxPoint x="310" y="135.5" as="targetPoint" />
            <Array as="points">
              <mxPoint x="800" y="575.5" />
            </Array>
          </mxGeometry>
        </mxCell>
        <mxCell id="75" value="" style="edgeStyle=elbowEdgeStyle;elbow=horizontal;strokeWidth=2;rounded=0" parent="1" source="29" target="32" edge="1">
          <mxGeometry x="210" y="135.5" width="100" height="100" as="geometry">
            <mxPoint x="210" y="235.5" as="sourcePoint" />
            <mxPoint x="310" y="135.5" as="targetPoint" />
            <Array as="points">
              <mxPoint x="800" y="615.5" />
            </Array>
          </mxGeometry>
        </mxCell>
        <mxCell id="76" value="" style="edgeStyle=elbowEdgeStyle;elbow=horizontal;strokeWidth=2;rounded=0" parent="1" source="33" target="34" edge="1">
          <mxGeometry x="210" y="135.5" width="100" height="100" as="geometry">
            <mxPoint x="210" y="235.5" as="sourcePoint" />
            <mxPoint x="310" y="135.5" as="targetPoint" />
            <Array as="points">
              <mxPoint x="980" y="535.5" />
            </Array>
          </mxGeometry>
        </mxCell>
        <mxCell id="77" value="" style="edgeStyle=elbowEdgeStyle;elbow=horizontal;strokeWidth=2;rounded=0" parent="1" source="33" target="35" edge="1">
          <mxGeometry x="210" y="135.5" width="100" height="100" as="geometry">
            <mxPoint x="210" y="235.5" as="sourcePoint" />
            <mxPoint x="310" y="135.5" as="targetPoint" />
            <Array as="points">
              <mxPoint x="980" y="575.5" />
            </Array>
          </mxGeometry>
        </mxCell>
        <mxCell id="84" value="" style="edgeStyle=elbowEdgeStyle;elbow=horizontal;strokeWidth=2;rounded=0" parent="1" source="44" target="45" edge="1">
          <mxGeometry x="410" y="135.5" width="100" height="100" as="geometry">
            <mxPoint x="410" y="235.5" as="sourcePoint" />
            <mxPoint x="510" y="135.5" as="targetPoint" />
            <Array as="points">
              <mxPoint x="1630" y="545.5" />
            </Array>
          </mxGeometry>
        </mxCell>
        <mxCell id="85" value="" style="edgeStyle=elbowEdgeStyle;elbow=horizontal;strokeWidth=2;rounded=0" parent="1" source="44" target="46" edge="1">
          <mxGeometry x="410" y="135.5" width="100" height="100" as="geometry">
            <mxPoint x="410" y="235.5" as="sourcePoint" />
            <mxPoint x="510" y="135.5" as="targetPoint" />
            <Array as="points">
              <mxPoint x="1630" y="575.5" />
            </Array>
          </mxGeometry>
        </mxCell>
        <mxCell id="86" value="" style="edgeStyle=elbowEdgeStyle;elbow=horizontal;strokeWidth=2;rounded=0" parent="1" source="44" target="47" edge="1">
          <mxGeometry x="410" y="135.5" width="100" height="100" as="geometry">
            <mxPoint x="410" y="235.5" as="sourcePoint" />
            <mxPoint x="510" y="135.5" as="targetPoint" />
            <Array as="points">
              <mxPoint x="1630" y="625.5" />
            </Array>
          </mxGeometry>
        </mxCell>
        <mxCell id="87" value="" style="edgeStyle=elbowEdgeStyle;elbow=horizontal;strokeWidth=2;rounded=0" parent="1" source="48" target="49" edge="1">
          <mxGeometry x="410" y="135.5" width="100" height="100" as="geometry">
            <mxPoint x="410" y="235.5" as="sourcePoint" />
            <mxPoint x="510" y="135.5" as="targetPoint" />
            <Array as="points">
              <mxPoint x="1800" y="535.5" />
            </Array>
          </mxGeometry>
        </mxCell>
        <mxCell id="88" value="" style="edgeStyle=elbowEdgeStyle;elbow=horizontal;strokeWidth=2;rounded=0" parent="1" source="48" target="50" edge="1">
          <mxGeometry x="410" y="135.5" width="100" height="100" as="geometry">
            <mxPoint x="410" y="235.5" as="sourcePoint" />
            <mxPoint x="510" y="135.5" as="targetPoint" />
            <Array as="points">
              <mxPoint x="1800" y="595.5" />
            </Array>
          </mxGeometry>
        </mxCell>
        <mxCell id="89" value="" style="edgeStyle=elbowEdgeStyle;elbow=horizontal;strokeWidth=2;rounded=0" parent="1" source="48" target="51" edge="1">
          <mxGeometry x="410" y="135.5" width="100" height="100" as="geometry">
            <mxPoint x="410" y="235.5" as="sourcePoint" />
            <mxPoint x="510" y="135.5" as="targetPoint" />
            <Array as="points">
              <mxPoint x="1800" y="625.5" />
            </Array>
          </mxGeometry>
        </mxCell>
        <mxCell id="90" value="" style="edgeStyle=elbowEdgeStyle;elbow=horizontal;strokeWidth=2;rounded=0" parent="1" source="52" target="53" edge="1">
          <mxGeometry x="410" y="135.5" width="100" height="100" as="geometry">
            <mxPoint x="410" y="235.5" as="sourcePoint" />
            <mxPoint x="510" y="135.5" as="targetPoint" />
            <Array as="points">
              <mxPoint x="1980" y="535.5" />
            </Array>
          </mxGeometry>
        </mxCell>
        <mxCell id="91" value="" style="edgeStyle=elbowEdgeStyle;elbow=horizontal;strokeWidth=2;rounded=0" parent="1" source="52" target="54" edge="1">
          <mxGeometry x="410" y="135.5" width="100" height="100" as="geometry">
            <mxPoint x="410" y="235.5" as="sourcePoint" />
            <mxPoint x="510" y="135.5" as="targetPoint" />
            <Array as="points">
              <mxPoint x="1980" y="575.5" />
            </Array>
          </mxGeometry>
        </mxCell>
        <mxCell id="92" value="" style="edgeStyle=elbowEdgeStyle;elbow=horizontal;strokeWidth=2;rounded=0" parent="1" source="52" target="55" edge="1">
          <mxGeometry x="410" y="135.5" width="100" height="100" as="geometry">
            <mxPoint x="410" y="235.5" as="sourcePoint" />
            <mxPoint x="510" y="135.5" as="targetPoint" />
            <Array as="points">
              <mxPoint x="1980" y="625.5" />
            </Array>
          </mxGeometry>
        </mxCell>
        <mxCell id="93" value="" style="edgeStyle=elbowEdgeStyle;elbow=horizontal;strokeWidth=2;rounded=0" parent="1" source="52" target="56" edge="1">
          <mxGeometry x="410" y="135.5" width="100" height="100" as="geometry">
            <mxPoint x="410" y="235.5" as="sourcePoint" />
            <mxPoint x="510" y="135.5" as="targetPoint" />
            <Array as="points">
              <mxPoint x="1980" y="675.5" />
            </Array>
          </mxGeometry>
        </mxCell>
        <mxCell id="94" value="" style="edgeStyle=elbowEdgeStyle;elbow=horizontal;strokeWidth=2;rounded=0" parent="1" source="52" target="57" edge="1">
          <mxGeometry x="410" y="135.5" width="100" height="100" as="geometry">
            <mxPoint x="410" y="235.5" as="sourcePoint" />
            <mxPoint x="510" y="135.5" as="targetPoint" />
            <Array as="points">
              <mxPoint x="1980" y="725.5" />
            </Array>
          </mxGeometry>
        </mxCell>
        <mxCell id="95" value="" style="edgeStyle=elbowEdgeStyle;elbow=horizontal;strokeWidth=2;rounded=0" parent="1" source="52" target="58" edge="1">
          <mxGeometry x="410" y="135.5" width="100" height="100" as="geometry">
            <mxPoint x="410" y="235.5" as="sourcePoint" />
            <mxPoint x="510" y="135.5" as="targetPoint" />
            <Array as="points">
              <mxPoint x="1980" y="765.5" />
            </Array>
          </mxGeometry>
        </mxCell>
        <mxCell id="100" value="" style="edgeStyle=elbowEdgeStyle;elbow=vertical;strokeWidth=2;rounded=0" parent="1" source="12" target="25" edge="1">
          <mxGeometry x="210" y="135.5" width="100" height="100" as="geometry">
            <mxPoint x="210" y="235.5" as="sourcePoint" />
            <mxPoint x="310" y="135.5" as="targetPoint" />
          </mxGeometry>
        </mxCell>
        <mxCell id="101" value="" style="edgeStyle=elbowEdgeStyle;elbow=vertical;strokeWidth=2;rounded=0" parent="1" source="12" target="29" edge="1">
          <mxGeometry x="210" y="135.5" width="100" height="100" as="geometry">
            <mxPoint x="210" y="235.5" as="sourcePoint" />
            <mxPoint x="310" y="135.5" as="targetPoint" />
          </mxGeometry>
        </mxCell>
        <mxCell id="102" value="" style="edgeStyle=elbowEdgeStyle;elbow=vertical;strokeWidth=2;rounded=0" parent="1" source="12" target="33" edge="1">
          <mxGeometry x="210" y="135.5" width="100" height="100" as="geometry">
            <mxPoint x="210" y="235.5" as="sourcePoint" />
            <mxPoint x="310" y="135.5" as="targetPoint" />
          </mxGeometry>
        </mxCell>
        <mxCell id="104" value="" style="edgeStyle=elbowEdgeStyle;elbow=vertical;strokeWidth=2;rounded=0" parent="1" source="4" target="48" edge="1">
          <mxGeometry x="410" y="135.5" width="100" height="100" as="geometry">
            <mxPoint x="410" y="235.5" as="sourcePoint" />
            <mxPoint x="510" y="135.5" as="targetPoint" />
          </mxGeometry>
        </mxCell>
        <mxCell id="105" value="" style="edgeStyle=elbowEdgeStyle;elbow=vertical;strokeWidth=2;rounded=0" parent="1" source="4" target="44" edge="1">
          <mxGeometry x="410" y="135.5" width="100" height="100" as="geometry">
            <mxPoint x="410" y="235.5" as="sourcePoint" />
            <mxPoint x="510" y="135.5" as="targetPoint" />
          </mxGeometry>
        </mxCell>
        <mxCell id="106" value="" style="edgeStyle=elbowEdgeStyle;elbow=vertical;strokeWidth=2;rounded=0" parent="1" source="4" target="52" edge="1">
          <mxGeometry x="410" y="135.5" width="100" height="100" as="geometry">
            <mxPoint x="410" y="235.5" as="sourcePoint" />
            <mxPoint x="510" y="135.5" as="targetPoint" />
          </mxGeometry>
        </mxCell>
        <mxCell id="pixhOsrh7slj3E2B8Isp-123" value="Project Directory Construction" style="text;html=1;resizable=0;points=[];autosize=1;align=left;verticalAlign=top;spacingTop=-4;fontSize=30;fontStyle=1" parent="1" vertex="1">
          <mxGeometry x="56.5" y="20" width="450" height="40" as="geometry" />
        </mxCell>
        <mxCell id="pixhOsrh7slj3E2B8Isp-124" value="시험 분석 SW 플랫폼 프로젝트 구성" style="text;html=1;resizable=0;points=[];autosize=1;align=left;verticalAlign=top;spacingTop=-4;fontSize=16;" parent="1" vertex="1">
          <mxGeometry x="56.5" y="65.5" width="270" height="20" as="geometry" />
        </mxCell>
        <mxCell id="pixhOsrh7slj3E2B8Isp-125" value="" style="line;strokeWidth=2;html=1;fontSize=14;" parent="1" vertex="1">
          <mxGeometry x="52.5" y="95" width="2367.5" height="10" as="geometry" />
        </mxCell>
        <mxCell id="VNOOyDUHC6UwMGlSPUmM-135" value="" style="fillColor=#F2931E;strokeColor=none;opacity=30;" vertex="1" parent="1">
          <mxGeometry x="240" y="705.5" width="150" height="270" as="geometry" />
        </mxCell>
        <mxCell id="VNOOyDUHC6UwMGlSPUmM-136" value="" style="fillColor=#10739E;strokeColor=none;opacity=30;" vertex="1" parent="1">
          <mxGeometry x="240" y="985.5000000000001" width="150" height="80" as="geometry" />
        </mxCell>
        <mxCell id="VNOOyDUHC6UwMGlSPUmM-170" value="" style="edgeStyle=orthogonalEdgeStyle;rounded=0;orthogonalLoop=1;jettySize=auto;html=1;fontSize=22;exitX=0.5;exitY=0;exitDx=0;exitDy=0;" edge="1" parent="1" target="VNOOyDUHC6UwMGlSPUmM-139">
          <mxGeometry relative="1" as="geometry">
            <mxPoint x="320" y="455.5" as="sourcePoint" />
          </mxGeometry>
        </mxCell>
        <mxCell id="VNOOyDUHC6UwMGlSPUmM-138" value="" style="fillColor=#12AAB5;strokeColor=none;opacity=30;" vertex="1" parent="1">
          <mxGeometry x="70" y="445.5" width="500" height="80" as="geometry" />
        </mxCell>
        <mxCell id="VNOOyDUHC6UwMGlSPUmM-139" value="Resource" style="rounded=1;fillColor=#23445D;gradientColor=none;strokeColor=none;fontColor=#FFFFFF;fontStyle=1;fontFamily=Tahoma;fontSize=14" vertex="1" parent="1">
          <mxGeometry x="316.4999999999999" y="335.5" width="190" height="80" as="geometry" />
        </mxCell>
        <mxCell id="VNOOyDUHC6UwMGlSPUmM-140" value="Images" style="rounded=1;fillColor=#60a917;strokeColor=#2D7600;fontColor=#ffffff;fontStyle=1;fontFamily=Tahoma;fontSize=14" vertex="1" parent="1">
          <mxGeometry x="80" y="455.5" width="130" height="60" as="geometry" />
        </mxCell>
        <mxCell id="VNOOyDUHC6UwMGlSPUmM-141" value="BG" style="rounded=1;fillColor=#23445D;gradientColor=none;strokeColor=none;fontColor=#FFFFFF;fontStyle=1;fontFamily=Tahoma;fontSize=14" vertex="1" parent="1">
          <mxGeometry x="80" y="545.5" width="130" height="60" as="geometry" />
        </mxCell>
        <mxCell id="VNOOyDUHC6UwMGlSPUmM-142" value="Icon" style="rounded=1;fillColor=#23445D;gradientColor=none;strokeColor=none;fontColor=#FFFFFF;fontStyle=1;fontFamily=Tahoma;fontSize=14" vertex="1" parent="1">
          <mxGeometry x="80" y="635.5" width="130" height="60" as="geometry" />
        </mxCell>
        <mxCell id="VNOOyDUHC6UwMGlSPUmM-143" value="Data Collection" style="rounded=1;fillColor=#23445D;gradientColor=none;strokeColor=none;fontColor=#FFFFFF;fontStyle=1;fontFamily=Tahoma;fontSize=14" vertex="1" parent="1">
          <mxGeometry x="80" y="725.5" width="130" height="60" as="geometry" />
        </mxCell>
        <mxCell id="VNOOyDUHC6UwMGlSPUmM-148" value="Others" style="rounded=1;fillColor=#23445D;gradientColor=none;strokeColor=none;fontColor=#FFFFFF;fontStyle=1;fontFamily=Tahoma;fontSize=14" vertex="1" parent="1">
          <mxGeometry x="250" y="455.5" width="130" height="60" as="geometry" />
        </mxCell>
        <mxCell id="VNOOyDUHC6UwMGlSPUmM-149" value="Programming" style="rounded=1;fillColor=#6a00ff;strokeColor=#3700CC;fontColor=#ffffff;fontStyle=1;fontFamily=Tahoma;fontSize=14" vertex="1" parent="1">
          <mxGeometry x="250" y="545.5" width="130" height="60" as="geometry" />
        </mxCell>
        <mxCell id="VNOOyDUHC6UwMGlSPUmM-150" value="HTTP" style="rounded=1;fillColor=#6a00ff;strokeColor=#3700CC;fontColor=#ffffff;fontStyle=1;fontFamily=Tahoma;fontSize=14" vertex="1" parent="1">
          <mxGeometry x="250" y="635.5" width="130" height="60" as="geometry" />
        </mxCell>
        <mxCell id="VNOOyDUHC6UwMGlSPUmM-151" value="HTS" style="rounded=1;fillColor=#6a00ff;strokeColor=#3700CC;fontColor=#ffffff;fontStyle=1;fontFamily=Tahoma;fontSize=14" vertex="1" parent="1">
          <mxGeometry x="250" y="725.5" width="130" height="60" as="geometry" />
        </mxCell>
        <mxCell id="VNOOyDUHC6UwMGlSPUmM-152" value="CVS" style="rounded=1;fillColor=#6a00ff;strokeColor=#3700CC;fontColor=#ffffff;fontStyle=1;fontFamily=Tahoma;fontSize=14" vertex="1" parent="1">
          <mxGeometry x="250" y="815.5" width="130" height="60" as="geometry" />
        </mxCell>
        <mxCell id="VNOOyDUHC6UwMGlSPUmM-153" value="Client / Server" style="rounded=1;fillColor=#6a00ff;strokeColor=#3700CC;fontColor=#ffffff;fontStyle=1;fontFamily=Tahoma;fontSize=14" vertex="1" parent="1">
          <mxGeometry x="250" y="905.5" width="130" height="60" as="geometry" />
        </mxCell>
        <mxCell id="VNOOyDUHC6UwMGlSPUmM-154" value="Data Collection" style="rounded=1;fillColor=#6a00ff;strokeColor=#3700CC;fontColor=#ffffff;fontStyle=1;fontFamily=Tahoma;fontSize=14" vertex="1" parent="1">
          <mxGeometry x="250" y="995.5" width="130" height="60" as="geometry" />
        </mxCell>
        <mxCell id="VNOOyDUHC6UwMGlSPUmM-155" value="" style="edgeStyle=elbowEdgeStyle;elbow=horizontal;strokeWidth=2;rounded=0" edge="1" parent="1" source="VNOOyDUHC6UwMGlSPUmM-140" target="VNOOyDUHC6UwMGlSPUmM-141">
          <mxGeometry x="-360" y="135.5" width="100" height="100" as="geometry">
            <mxPoint x="-360" y="235.5" as="sourcePoint" />
            <mxPoint x="-260" y="135.5" as="targetPoint" />
            <Array as="points">
              <mxPoint x="60" y="535.5" />
            </Array>
          </mxGeometry>
        </mxCell>
        <mxCell id="VNOOyDUHC6UwMGlSPUmM-156" value="" style="edgeStyle=elbowEdgeStyle;elbow=horizontal;strokeWidth=2;rounded=0" edge="1" parent="1" source="VNOOyDUHC6UwMGlSPUmM-140" target="VNOOyDUHC6UwMGlSPUmM-142">
          <mxGeometry x="-360" y="135.5" width="100" height="100" as="geometry">
            <mxPoint x="-360" y="235.5" as="sourcePoint" />
            <mxPoint x="-260" y="135.5" as="targetPoint" />
            <Array as="points">
              <mxPoint x="60" y="575.5" />
            </Array>
          </mxGeometry>
        </mxCell>
        <mxCell id="VNOOyDUHC6UwMGlSPUmM-157" value="" style="edgeStyle=elbowEdgeStyle;elbow=horizontal;strokeWidth=2;rounded=0" edge="1" parent="1" source="VNOOyDUHC6UwMGlSPUmM-140" target="VNOOyDUHC6UwMGlSPUmM-143">
          <mxGeometry x="-360" y="135.5" width="100" height="100" as="geometry">
            <mxPoint x="-360" y="235.5" as="sourcePoint" />
            <mxPoint x="-260" y="135.5" as="targetPoint" />
            <Array as="points">
              <mxPoint x="60" y="615.5" />
            </Array>
          </mxGeometry>
        </mxCell>
        <mxCell id="VNOOyDUHC6UwMGlSPUmM-161" value="" style="edgeStyle=elbowEdgeStyle;elbow=horizontal;strokeWidth=2;rounded=0" edge="1" parent="1" source="VNOOyDUHC6UwMGlSPUmM-148" target="VNOOyDUHC6UwMGlSPUmM-149">
          <mxGeometry x="-540" y="135.5" width="100" height="100" as="geometry">
            <mxPoint x="-540" y="235.5" as="sourcePoint" />
            <mxPoint x="-440" y="135.5" as="targetPoint" />
            <Array as="points">
              <mxPoint x="230" y="535.5" />
            </Array>
          </mxGeometry>
        </mxCell>
        <mxCell id="VNOOyDUHC6UwMGlSPUmM-162" value="" style="edgeStyle=elbowEdgeStyle;elbow=horizontal;strokeWidth=2;rounded=0" edge="1" parent="1" source="VNOOyDUHC6UwMGlSPUmM-148" target="VNOOyDUHC6UwMGlSPUmM-150">
          <mxGeometry x="-540" y="135.5" width="100" height="100" as="geometry">
            <mxPoint x="-540" y="235.5" as="sourcePoint" />
            <mxPoint x="-440" y="135.5" as="targetPoint" />
            <Array as="points">
              <mxPoint x="230" y="575.5" />
            </Array>
          </mxGeometry>
        </mxCell>
        <mxCell id="VNOOyDUHC6UwMGlSPUmM-163" value="" style="edgeStyle=elbowEdgeStyle;elbow=horizontal;strokeWidth=2;rounded=0" edge="1" parent="1" source="VNOOyDUHC6UwMGlSPUmM-148" target="VNOOyDUHC6UwMGlSPUmM-151">
          <mxGeometry x="-540" y="135.5" width="100" height="100" as="geometry">
            <mxPoint x="-540" y="235.5" as="sourcePoint" />
            <mxPoint x="-440" y="135.5" as="targetPoint" />
            <Array as="points">
              <mxPoint x="230" y="625.5" />
            </Array>
          </mxGeometry>
        </mxCell>
        <mxCell id="VNOOyDUHC6UwMGlSPUmM-164" value="" style="edgeStyle=elbowEdgeStyle;elbow=horizontal;strokeWidth=2;rounded=0" edge="1" parent="1" source="VNOOyDUHC6UwMGlSPUmM-148" target="VNOOyDUHC6UwMGlSPUmM-152">
          <mxGeometry x="-540" y="135.5" width="100" height="100" as="geometry">
            <mxPoint x="-540" y="235.5" as="sourcePoint" />
            <mxPoint x="-440" y="135.5" as="targetPoint" />
            <Array as="points">
              <mxPoint x="230" y="665.5" />
            </Array>
          </mxGeometry>
        </mxCell>
        <mxCell id="VNOOyDUHC6UwMGlSPUmM-165" value="" style="edgeStyle=elbowEdgeStyle;elbow=horizontal;strokeWidth=2;rounded=0" edge="1" parent="1" source="VNOOyDUHC6UwMGlSPUmM-148" target="VNOOyDUHC6UwMGlSPUmM-153">
          <mxGeometry x="-540" y="135.5" width="100" height="100" as="geometry">
            <mxPoint x="-540" y="235.5" as="sourcePoint" />
            <mxPoint x="-440" y="135.5" as="targetPoint" />
            <Array as="points">
              <mxPoint x="230" y="705.5" />
            </Array>
          </mxGeometry>
        </mxCell>
        <mxCell id="VNOOyDUHC6UwMGlSPUmM-166" value="" style="edgeStyle=elbowEdgeStyle;elbow=horizontal;strokeWidth=2;rounded=0" edge="1" parent="1" source="VNOOyDUHC6UwMGlSPUmM-148" target="VNOOyDUHC6UwMGlSPUmM-154">
          <mxGeometry x="-540" y="135.5" width="100" height="100" as="geometry">
            <mxPoint x="-540" y="235.5" as="sourcePoint" />
            <mxPoint x="-440" y="135.5" as="targetPoint" />
            <Array as="points">
              <mxPoint x="230" y="755.5" />
            </Array>
          </mxGeometry>
        </mxCell>
        <mxCell id="VNOOyDUHC6UwMGlSPUmM-167" value="" style="edgeStyle=elbowEdgeStyle;elbow=vertical;strokeWidth=2;rounded=0" edge="1" parent="1" source="VNOOyDUHC6UwMGlSPUmM-139" target="VNOOyDUHC6UwMGlSPUmM-140">
          <mxGeometry x="-360" y="135.5" width="100" height="100" as="geometry">
            <mxPoint x="-360" y="235.5" as="sourcePoint" />
            <mxPoint x="-260" y="135.5" as="targetPoint" />
          </mxGeometry>
        </mxCell>
        <mxCell id="VNOOyDUHC6UwMGlSPUmM-168" value="" style="edgeStyle=elbowEdgeStyle;elbow=vertical;strokeWidth=2;rounded=0" edge="1" parent="1" source="VNOOyDUHC6UwMGlSPUmM-139">
          <mxGeometry x="-360" y="135.5" width="100" height="100" as="geometry">
            <mxPoint x="-360" y="235.5" as="sourcePoint" />
            <mxPoint x="320" y="455.5" as="targetPoint" />
          </mxGeometry>
        </mxCell>
        <mxCell id="VNOOyDUHC6UwMGlSPUmM-169" value="" style="edgeStyle=elbowEdgeStyle;elbow=vertical;strokeWidth=2;rounded=0" edge="1" parent="1" source="VNOOyDUHC6UwMGlSPUmM-139">
          <mxGeometry x="-360" y="135.5" width="100" height="100" as="geometry">
            <mxPoint x="-360" y="235.5" as="sourcePoint" />
            <mxPoint x="500" y="456" as="targetPoint" />
          </mxGeometry>
        </mxCell>
        <mxCell id="VNOOyDUHC6UwMGlSPUmM-171" value="BG" style="rounded=1;fillColor=#6a00ff;strokeColor=#3700CC;fontStyle=1;fontFamily=Tahoma;fontSize=14;fontColor=#ffffff;" vertex="1" parent="1">
          <mxGeometry x="80" y="545.5" width="130" height="60" as="geometry" />
        </mxCell>
        <mxCell id="VNOOyDUHC6UwMGlSPUmM-172" value="Icon" style="rounded=1;fillColor=#6a00ff;strokeColor=#3700CC;fontStyle=1;fontFamily=Tahoma;fontSize=14;fontColor=#ffffff;" vertex="1" parent="1">
          <mxGeometry x="80" y="635.5" width="130" height="60" as="geometry" />
        </mxCell>
        <mxCell id="VNOOyDUHC6UwMGlSPUmM-173" value="Data Collection" style="rounded=1;fillColor=#6a00ff;strokeColor=#3700CC;fontStyle=1;fontFamily=Tahoma;fontSize=14;fontColor=#ffffff;" vertex="1" parent="1">
          <mxGeometry x="80" y="725.5" width="130" height="60" as="geometry" />
        </mxCell>
        <mxCell id="VNOOyDUHC6UwMGlSPUmM-177" value="Properties" style="rounded=1;fillColor=#23445D;gradientColor=none;strokeColor=none;fontColor=#FFFFFF;fontStyle=1;fontFamily=Tahoma;fontSize=14" vertex="1" parent="1">
          <mxGeometry x="425" y="455.5" width="130" height="60" as="geometry" />
        </mxCell>
        <mxCell id="VNOOyDUHC6UwMGlSPUmM-178" value="Setting" style="rounded=1;fillColor=#6a00ff;strokeColor=#3700CC;fontStyle=1;fontFamily=Tahoma;fontSize=14;fontColor=#ffffff;" vertex="1" parent="1">
          <mxGeometry x="425" y="545.5" width="130" height="60" as="geometry" />
        </mxCell>
        <mxCell id="VNOOyDUHC6UwMGlSPUmM-179" value="Language" style="rounded=1;fillColor=#6a00ff;strokeColor=#3700CC;fontStyle=1;fontFamily=Tahoma;fontSize=14;fontColor=#ffffff;" vertex="1" parent="1">
          <mxGeometry x="425" y="635.5" width="130" height="60" as="geometry" />
        </mxCell>
        <mxCell id="VNOOyDUHC6UwMGlSPUmM-180" value="Analysis" style="rounded=1;fillColor=#6a00ff;strokeColor=#3700CC;fontColor=#ffffff;fontStyle=1;fontFamily=Tahoma;fontSize=14" vertex="1" parent="1">
          <mxGeometry x="425" y="725.5" width="130" height="60" as="geometry" />
        </mxCell>
        <mxCell id="VNOOyDUHC6UwMGlSPUmM-181" value="" style="edgeStyle=elbowEdgeStyle;elbow=horizontal;strokeWidth=2;rounded=0" edge="1" parent="1" source="VNOOyDUHC6UwMGlSPUmM-177" target="VNOOyDUHC6UwMGlSPUmM-178">
          <mxGeometry x="-190" y="135.5" width="100" height="100" as="geometry">
            <mxPoint x="-190" y="235.5" as="sourcePoint" />
            <mxPoint x="-90" y="135.5" as="targetPoint" />
            <Array as="points">
              <mxPoint x="400" y="535.5" />
            </Array>
          </mxGeometry>
        </mxCell>
        <mxCell id="VNOOyDUHC6UwMGlSPUmM-182" value="" style="edgeStyle=elbowEdgeStyle;elbow=horizontal;strokeWidth=2;rounded=0" edge="1" parent="1" source="VNOOyDUHC6UwMGlSPUmM-177" target="VNOOyDUHC6UwMGlSPUmM-179">
          <mxGeometry x="-190" y="135.5" width="100" height="100" as="geometry">
            <mxPoint x="-190" y="235.5" as="sourcePoint" />
            <mxPoint x="-90" y="135.5" as="targetPoint" />
            <Array as="points">
              <mxPoint x="400" y="575.5" />
            </Array>
          </mxGeometry>
        </mxCell>
        <mxCell id="VNOOyDUHC6UwMGlSPUmM-183" value="" style="edgeStyle=elbowEdgeStyle;elbow=horizontal;strokeWidth=2;rounded=0" edge="1" parent="1" source="VNOOyDUHC6UwMGlSPUmM-177" target="VNOOyDUHC6UwMGlSPUmM-180">
          <mxGeometry x="-190" y="135.5" width="100" height="100" as="geometry">
            <mxPoint x="-190" y="235.5" as="sourcePoint" />
            <mxPoint x="-90" y="135.5" as="targetPoint" />
            <Array as="points">
              <mxPoint x="400" y="615.5" />
            </Array>
          </mxGeometry>
        </mxCell>
        <mxCell id="VNOOyDUHC6UwMGlSPUmM-184" value="AI" style="rounded=1;fillColor=#6a00ff;strokeColor=#3700CC;fontColor=#ffffff;fontStyle=1;fontFamily=Tahoma;fontSize=14" vertex="1" parent="1">
          <mxGeometry x="425" y="815.5" width="130" height="60" as="geometry" />
        </mxCell>
        <mxCell id="VNOOyDUHC6UwMGlSPUmM-185" value="" style="edgeStyle=elbowEdgeStyle;elbow=horizontal;strokeWidth=2;rounded=0;exitX=0;exitY=0.5;exitDx=0;exitDy=0;entryX=0;entryY=0.5;entryDx=0;entryDy=0;" edge="1" parent="1" source="VNOOyDUHC6UwMGlSPUmM-177" target="VNOOyDUHC6UwMGlSPUmM-184">
          <mxGeometry x="-180" y="145.5" width="100" height="100" as="geometry">
            <mxPoint x="435" y="495.5" as="sourcePoint" />
            <mxPoint x="435" y="765.5" as="targetPoint" />
            <Array as="points">
              <mxPoint x="400" y="780" />
              <mxPoint x="410" y="625.5" />
            </Array>
          </mxGeometry>
        </mxCell>
        <mxCell id="VNOOyDUHC6UwMGlSPUmM-186" value="Analysis" style="rounded=1;fillColor=#a20025;strokeColor=#6F0000;fontColor=#ffffff;fontStyle=1;fontFamily=Tahoma;fontSize=14" vertex="1" parent="1">
          <mxGeometry x="1210" y="635.5" width="130" height="60" as="geometry" />
        </mxCell>
        <mxCell id="VNOOyDUHC6UwMGlSPUmM-187" value="AI" style="rounded=1;fillColor=#a20025;strokeColor=#6F0000;fontColor=#ffffff;fontStyle=1;fontFamily=Tahoma;fontSize=14" vertex="1" parent="1">
          <mxGeometry x="1210" y="725.5" width="130" height="60" as="geometry" />
        </mxCell>
        <mxCell id="VNOOyDUHC6UwMGlSPUmM-188" value="Client / Server" style="rounded=1;fillColor=#a20025;strokeColor=#6F0000;fontColor=#ffffff;fontStyle=1;fontFamily=Tahoma;fontSize=14" vertex="1" parent="1">
          <mxGeometry x="1210" y="815.5" width="130" height="60" as="geometry" />
        </mxCell>
        <mxCell id="VNOOyDUHC6UwMGlSPUmM-189" value="Data Collection" style="rounded=1;fillColor=#a20025;strokeColor=#6F0000;fontColor=#ffffff;fontStyle=1;fontFamily=Tahoma;fontSize=14" vertex="1" parent="1">
          <mxGeometry x="1210" y="905.5" width="130" height="60" as="geometry" />
        </mxCell>
        <mxCell id="VNOOyDUHC6UwMGlSPUmM-190" value="" style="edgeStyle=elbowEdgeStyle;elbow=horizontal;strokeWidth=2;rounded=0;exitX=0;exitY=0.5;exitDx=0;exitDy=0;entryX=0;entryY=0.5;entryDx=0;entryDy=0;" edge="1" parent="1" source="VNOOyDUHC6UwMGlSPUmM-186" target="VNOOyDUHC6UwMGlSPUmM-187">
          <mxGeometry x="390" y="330" width="100" height="100" as="geometry">
            <mxPoint x="1179.9999999999995" y="680" as="sourcePoint" />
            <mxPoint x="1179.9999999999995" y="860" as="targetPoint" />
            <Array as="points">
              <mxPoint x="1180" y="760" />
            </Array>
          </mxGeometry>
        </mxCell>
        <mxCell id="VNOOyDUHC6UwMGlSPUmM-192" value="" style="edgeStyle=elbowEdgeStyle;elbow=horizontal;strokeWidth=2;rounded=0;exitX=0;exitY=0.5;exitDx=0;exitDy=0;entryX=0;entryY=0.5;entryDx=0;entryDy=0;" edge="1" parent="1" source="VNOOyDUHC6UwMGlSPUmM-186" target="VNOOyDUHC6UwMGlSPUmM-188">
          <mxGeometry x="400" y="340" width="100" height="100" as="geometry">
            <mxPoint x="1219.9999999999995" y="675.5" as="sourcePoint" />
            <mxPoint x="1219.9999999999995" y="765.5" as="targetPoint" />
            <Array as="points">
              <mxPoint x="1180" y="780" />
              <mxPoint x="1190" y="770" />
            </Array>
          </mxGeometry>
        </mxCell>
        <mxCell id="VNOOyDUHC6UwMGlSPUmM-193" value="" style="edgeStyle=elbowEdgeStyle;elbow=horizontal;strokeWidth=2;rounded=0;exitX=0;exitY=0.5;exitDx=0;exitDy=0;entryX=0;entryY=0.5;entryDx=0;entryDy=0;" edge="1" parent="1" source="VNOOyDUHC6UwMGlSPUmM-177">
          <mxGeometry x="-180" y="235.5" width="100" height="100" as="geometry">
            <mxPoint x="425" y="575.5" as="sourcePoint" />
            <mxPoint x="425" y="935.5" as="targetPoint" />
            <Array as="points">
              <mxPoint x="400" y="870" />
              <mxPoint x="410" y="715.5" />
            </Array>
          </mxGeometry>
        </mxCell>
        <mxCell id="VNOOyDUHC6UwMGlSPUmM-194" value="DATA" style="rounded=1;fillColor=#6a00ff;strokeColor=#3700CC;fontColor=#ffffff;fontStyle=1;fontFamily=Tahoma;fontSize=14" vertex="1" parent="1">
          <mxGeometry x="425" y="905.5" width="130" height="60" as="geometry" />
        </mxCell>
        <mxCell id="VNOOyDUHC6UwMGlSPUmM-195" value="Others" style="rounded=1;fillColor=#008a00;strokeColor=#005700;fontColor=#ffffff;fontStyle=1;fontFamily=Tahoma;fontSize=14" vertex="1" parent="1">
          <mxGeometry x="250" y="455.5" width="130" height="60" as="geometry" />
        </mxCell>
        <mxCell id="VNOOyDUHC6UwMGlSPUmM-196" value="Properties" style="rounded=1;fillColor=#008a00;strokeColor=#005700;fontColor=#ffffff;fontStyle=1;fontFamily=Tahoma;fontSize=14" vertex="1" parent="1">
          <mxGeometry x="425" y="455.5" width="130" height="60" as="geometry" />
        </mxCell>
        <mxCell id="VNOOyDUHC6UwMGlSPUmM-197" value="component" style="rounded=1;fillColor=#008a00;strokeColor=#005700;fontColor=#ffffff;fontStyle=1;fontFamily=Tahoma;fontSize=14" vertex="1" parent="1">
          <mxGeometry x="650" y="455.5" width="130" height="60" as="geometry" />
        </mxCell>
        <mxCell id="VNOOyDUHC6UwMGlSPUmM-198" value="View" style="rounded=1;fillColor=#008a00;strokeColor=#005700;fontColor=#ffffff;fontStyle=1;fontFamily=Tahoma;fontSize=14" vertex="1" parent="1">
          <mxGeometry x="825" y="455.5" width="130" height="60" as="geometry" />
        </mxCell>
        <mxCell id="VNOOyDUHC6UwMGlSPUmM-199" value="Functions" style="rounded=1;fillColor=#008a00;strokeColor=#005700;fontColor=#ffffff;fontStyle=1;fontFamily=Tahoma;fontSize=14" vertex="1" parent="1">
          <mxGeometry x="1000" y="455.5" width="130" height="60" as="geometry" />
        </mxCell>
        <mxCell id="VNOOyDUHC6UwMGlSPUmM-200" value="Modules" style="rounded=1;fillColor=#0050ef;strokeColor=#001DBC;fontColor=#ffffff;fontStyle=1;fontFamily=Tahoma;fontSize=14" vertex="1" parent="1">
          <mxGeometry x="1010" y="985.5" width="130" height="60" as="geometry" />
        </mxCell>
        <mxCell id="VNOOyDUHC6UwMGlSPUmM-201" value="" style="edgeStyle=elbowEdgeStyle;elbow=horizontal;strokeWidth=2;rounded=0;exitX=0;exitY=0.5;exitDx=0;exitDy=0;entryX=0;entryY=0.5;entryDx=0;entryDy=0;" edge="1" parent="1" source="VNOOyDUHC6UwMGlSPUmM-199" target="VNOOyDUHC6UwMGlSPUmM-200">
          <mxGeometry x="220" y="145.5" width="100" height="100" as="geometry">
            <mxPoint x="1009.9999999999995" y="495.5" as="sourcePoint" />
            <mxPoint x="1009.9999999999995" y="675.5" as="targetPoint" />
            <Array as="points">
              <mxPoint x="980" y="750" />
            </Array>
          </mxGeometry>
        </mxCell>
      </root>
    </mxGraphModel>
  </diagram>
</mxfile>
